<svg width="26" height="26" viewBox="0 0 26 26" fill="none" xmlns="http://www.w3.org/2000/svg">
<rect width="26" height="26" rx="4" fill="#FEFCFD"/>
<path d="M9.74998 5.41667C9.46266 5.41667 9.18711 5.5308 8.98395 5.73397C8.78078 5.93713 8.66665 6.21268 8.66665 6.5C8.66665 6.78732 8.78078 7.06287 8.98395 7.26603C9.18711 7.4692 9.46266 7.58333 9.74998 7.58333C10.0373 7.58333 10.3128 7.4692 10.516 7.26603C10.7192 7.06287 10.8333 6.78732 10.8333 6.5C10.8333 6.21268 10.7192 5.93713 10.516 5.73397C10.3128 5.5308 10.0373 5.41667 9.74998 5.41667ZM6.68415 5.41667C6.90797 4.78234 7.32303 4.23305 7.87213 3.84452C8.42123 3.45599 9.07732 3.24734 9.74998 3.24734C10.4226 3.24734 11.0787 3.45599 11.6278 3.84452C12.1769 4.23305 12.592 4.78234 12.8158 5.41667H20.5833C20.8706 5.41667 21.1462 5.5308 21.3493 5.73397C21.5525 5.93713 21.6666 6.21268 21.6666 6.5C21.6666 6.78732 21.5525 7.06287 21.3493 7.26603C21.1462 7.4692 20.8706 7.58333 20.5833 7.58333H12.8158C12.592 8.21766 12.1769 8.76695 11.6278 9.15548C11.0787 9.54401 10.4226 9.75266 9.74998 9.75266C9.07732 9.75266 8.42123 9.54401 7.87213 9.15548C7.32303 8.76695 6.90797 8.21766 6.68415 7.58333H5.41665C5.12933 7.58333 4.85378 7.4692 4.65061 7.26603C4.44745 7.06287 4.33331 6.78732 4.33331 6.5C4.33331 6.21268 4.44745 5.93713 4.65061 5.73397C4.85378 5.5308 5.12933 5.41667 5.41665 5.41667H6.68415ZM16.25 11.9167C15.9627 11.9167 15.6871 12.0308 15.4839 12.234C15.2808 12.4371 15.1666 12.7127 15.1666 13C15.1666 13.2873 15.2808 13.5629 15.4839 13.766C15.6871 13.9692 15.9627 14.0833 16.25 14.0833C16.5373 14.0833 16.8128 13.9692 17.016 13.766C17.2192 13.5629 17.3333 13.2873 17.3333 13C17.3333 12.7127 17.2192 12.4371 17.016 12.234C16.8128 12.0308 16.5373 11.9167 16.25 11.9167ZM13.1841 11.9167C13.408 11.2823 13.823 10.7331 14.3721 10.3445C14.9212 9.95599 15.5773 9.74734 16.25 9.74734C16.9226 9.74734 17.5787 9.95599 18.1278 10.3445C18.6769 10.7331 19.092 11.2823 19.3158 11.9167H20.5833C20.8706 11.9167 21.1462 12.0308 21.3493 12.234C21.5525 12.4371 21.6666 12.7127 21.6666 13C21.6666 13.2873 21.5525 13.5629 21.3493 13.766C21.1462 13.9692 20.8706 14.0833 20.5833 14.0833H19.3158C19.092 14.7177 18.6769 15.2669 18.1278 15.6555C17.5787 16.044 16.9226 16.2527 16.25 16.2527C15.5773 16.2527 14.9212 16.044 14.3721 15.6555C13.823 15.2669 13.408 14.7177 13.1841 14.0833H5.41665C5.12933 14.0833 4.85378 13.9692 4.65061 13.766C4.44745 13.5629 4.33331 13.2873 4.33331 13C4.33331 12.7127 4.44745 12.4371 4.65061 12.234C4.85378 12.0308 5.12933 11.9167 5.41665 11.9167H13.1841ZM9.74998 18.4167C9.46266 18.4167 9.18711 18.5308 8.98395 18.734C8.78078 18.9371 8.66665 19.2127 8.66665 19.5C8.66665 19.7873 8.78078 20.0629 8.98395 20.266C9.18711 20.4692 9.46266 20.5833 9.74998 20.5833C10.0373 20.5833 10.3128 20.4692 10.516 20.266C10.7192 20.0629 10.8333 19.7873 10.8333 19.5C10.8333 19.2127 10.7192 18.9371 10.516 18.734C10.3128 18.5308 10.0373 18.4167 9.74998 18.4167ZM6.68415 18.4167C6.90797 17.7823 7.32303 17.2331 7.87213 16.8445C8.42123 16.456 9.07732 16.2473 9.74998 16.2473C10.4226 16.2473 11.0787 16.456 11.6278 16.8445C12.1769 17.2331 12.592 17.7823 12.8158 18.4167H20.5833C20.8706 18.4167 21.1462 18.5308 21.3493 18.734C21.5525 18.9371 21.6666 19.2127 21.6666 19.5C21.6666 19.7873 21.5525 20.0629 21.3493 20.266C21.1462 20.4692 20.8706 20.5833 20.5833 20.5833H12.8158C12.592 21.2177 12.1769 21.7669 11.6278 22.1555C11.0787 22.544 10.4226 22.7527 9.74998 22.7527C9.07732 22.7527 8.42123 22.544 7.87213 22.1555C7.32303 21.7669 6.90797 21.2177 6.68415 20.5833H5.41665C5.12933 20.5833 4.85378 20.4692 4.65061 20.266C4.44745 20.0629 4.33331 19.7873 4.33331 19.5C4.33331 19.2127 4.44745 18.9371 4.65061 18.734C4.85378 18.5308 5.12933 18.4167 5.41665 18.4167H6.68415Z" fill="black"/>
</svg>
